<svg aria-hidden="true" style="position: absolute; width: 0; height: 0; overflow: hidden;" version="1.1" xmlns="http://www.w3.org/2000/svg" xmlns:xlink="http://www.w3.org/1999/xlink">
<defs>
<symbol id="icon-view-hide" viewBox="0 0 20 20">
<path d="M12.81 4.36l-1.77 1.78c-0.311-0.087-0.668-0.137-1.037-0.137-2.209 0-4 1.791-4 4 0 0.369 0.050 0.726 0.143 1.065l-0.007-0.028-2.76 2.75c-1.32-1-2.42-2.3-3.18-3.79 1.86-3.591 5.548-6.003 9.799-6.003 0.996 0 1.96 0.132 2.878 0.38l-0.077-0.018zM16.61 6.21c1.33 1 2.43 2.3 3.2 3.79-1.859 3.594-5.549 6.007-9.802 6.007-1.002 0-1.973-0.134-2.895-0.385l0.077 0.018 1.77-1.78c0.311 0.087 0.668 0.137 1.037 0.137 2.209 0 4-1.791 4-4 0-0.369-0.050-0.726-0.143-1.065l0.007 0.028 2.76-2.75zM16.36 2.22l1.42 1.42-14.14 14.14-1.42-1.42 14.14-14.14z"></path>
</symbol>
<symbol id="icon-view-show" viewBox="0 0 20 20">
<path d="M0.2 10c1.86-3.592 5.548-6.004 9.8-6.004s7.94 2.412 9.771 5.943l0.029 0.061c-1.86 3.592-5.548 6.004-9.8 6.004s-7.94-2.412-9.771-5.943l-0.029-0.061zM10 14c2.209 0 4-1.791 4-4s-1.791-4-4-4v0c-2.209 0-4 1.791-4 4s1.791 4 4 4v0zM10 12c-1.105 0-2-0.895-2-2s0.895-2 2-2v0c1.105 0 2 0.895 2 2s-0.895 2-2 2v0z"></path>
</symbol>
<symbol id="icon-arrow-long-down" viewBox="0 0 20 20">
<path d="M10 19.25l-5.5-5.25h3.5v-13h4v13h3.5l-5.5 5.25z"></path>
</symbol>
<symbol id="icon-arrow-long-left" viewBox="0 0 20 20">
<path d="M0.75 10l5.25-5.5v3.5h13v4h-13v3.5l-5.25-5.5z"></path>
</symbol>
<symbol id="icon-arrow-long-right" viewBox="0 0 20 20">
<path d="M14 15.5v-3.5h-13v-4h13v-3.5l5.25 5.5-5.25 5.5z"></path>
</symbol>
<symbol id="icon-arrow-long-up" viewBox="0 0 20 20">
<path d="M10 0.75l5.5 5.25h-3.5v13h-4v-13h-3.5l5.5-5.25z"></path>
</symbol>
<symbol id="icon-chevron-down" viewBox="0 0 20 20">
<path d="M4.516 7.548c0.436-0.446 1.043-0.481 1.576 0l3.908 3.747 3.908-3.747c0.533-0.481 1.141-0.446 1.574 0 0.436 0.445 0.408 1.197 0 1.615-0.406 0.418-4.695 4.502-4.695 4.502-0.217 0.223-0.502 0.335-0.787 0.335s-0.57-0.112-0.789-0.335c0 0-4.287-4.084-4.695-4.502s-0.436-1.17 0-1.615z"></path>
</symbol>
<symbol id="icon-chevron-left" viewBox="0 0 20 20">
<path d="M12.452 4.516c0.446 0.436 0.481 1.043 0 1.576l-3.747 3.908 3.747 3.908c0.481 0.533 0.446 1.141 0 1.574-0.445 0.436-1.197 0.408-1.615 0-0.418-0.406-4.502-4.695-4.502-4.695-0.223-0.217-0.335-0.502-0.335-0.787s0.112-0.57 0.335-0.789c0 0 4.084-4.287 4.502-4.695s1.17-0.436 1.615 0z"></path>
</symbol>
<symbol id="icon-chevron-right" viewBox="0 0 20 20">
<path d="M9.163 4.516c0.418 0.408 4.502 4.695 4.502 4.695 0.223 0.219 0.335 0.504 0.335 0.789s-0.112 0.57-0.335 0.787c0 0-4.084 4.289-4.502 4.695-0.418 0.408-1.17 0.436-1.615 0-0.446-0.434-0.481-1.041 0-1.574l3.747-3.908-3.747-3.908c-0.481-0.533-0.446-1.141 0-1.576s1.197-0.409 1.615 0z"></path>
</symbol>
<symbol id="icon-chevron-small-down" viewBox="0 0 20 20">
<path d="M13.418 7.859c0.271-0.268 0.709-0.268 0.978 0s0.272 0.701 0 0.969l-3.908 3.83c-0.27 0.268-0.707 0.268-0.979 0l-3.908-3.83c-0.27-0.267-0.27-0.701 0-0.969s0.709-0.268 0.978 0l3.421 3.141 3.418-3.141z"></path>
</symbol>
<symbol id="icon-chevron-small-left" viewBox="0 0 20 20">
<path d="M12.141 13.418c0.268 0.271 0.268 0.709 0 0.978s-0.701 0.272-0.969 0l-3.83-3.908c-0.268-0.27-0.268-0.707 0-0.979l3.83-3.908c0.267-0.27 0.701-0.27 0.969 0s0.268 0.709 0 0.978l-3.141 3.421 3.141 3.418z"></path>
</symbol>
<symbol id="icon-chevron-small-right" viewBox="0 0 20 20">
<path d="M11 10l-3.141-3.42c-0.268-0.27-0.268-0.707 0-0.978 0.268-0.27 0.701-0.27 0.969 0l3.83 3.908c0.268 0.271 0.268 0.709 0 0.979l-3.83 3.908c-0.267 0.272-0.701 0.27-0.969 0s-0.268-0.707 0-0.978l3.141-3.419z"></path>
</symbol>
<symbol id="icon-chevron-small-up" viewBox="0 0 20 20">
<path d="M6.582 12.141c-0.271 0.268-0.709 0.268-0.978 0s-0.272-0.701 0-0.969l3.908-3.83c0.27-0.268 0.707-0.268 0.979 0l3.908 3.83c0.27 0.267 0.27 0.701 0 0.969s-0.709 0.268-0.979 0l-3.42-3.141-3.418 3.141z"></path>
</symbol>
<symbol id="icon-chevron-up" viewBox="0 0 20 20">
<path d="M15.484 12.452c-0.436 0.446-1.043 0.481-1.576 0l-3.908-3.747-3.908 3.747c-0.533 0.481-1.141 0.446-1.574 0-0.436-0.445-0.408-1.197 0-1.615 0.406-0.418 4.695-4.502 4.695-4.502 0.217-0.223 0.502-0.335 0.787-0.335s0.57 0.112 0.789 0.335c0 0 4.287 4.084 4.695 4.502s0.436 1.17 0 1.615z"></path>
</symbol>
<symbol id="icon-dots-three-horizontal" viewBox="0 0 20 20">
<path d="M10.001 7.8c-1.215 0-2.201 0.985-2.201 2.2s0.986 2.2 2.201 2.2c1.215 0 2.199-0.985 2.199-2.2s-0.984-2.2-2.199-2.2zM3.001 7.8c-1.215 0-2.201 0.985-2.201 2.2s0.986 2.2 2.201 2.2c1.215 0 2.199-0.986 2.199-2.2s-0.984-2.2-2.199-2.2zM17.001 7.8c-1.215 0-2.201 0.985-2.201 2.2s0.986 2.2 2.201 2.2c1.215 0 2.199-0.985 2.199-2.2s-0.984-2.2-2.199-2.2z"></path>
</symbol>
<symbol id="icon-dots-three-vertical" viewBox="0 0 20 20">
<path d="M10.001 7.8c-1.215 0-2.201 0.985-2.201 2.2s0.986 2.2 2.201 2.2c1.215 0 2.199-0.985 2.199-2.2s-0.984-2.2-2.199-2.2zM10.001 5.2c1.215 0 2.199-0.986 2.199-2.2s-0.984-2.2-2.199-2.2c-1.215 0-2.201 0.985-2.201 2.2s0.986 2.2 2.201 2.2zM10.001 14.8c-1.215 0-2.201 0.985-2.201 2.2s0.986 2.2 2.201 2.2c1.215 0 2.199-0.985 2.199-2.2s-0.984-2.2-2.199-2.2z"></path>
</symbol>
<symbol id="icon-resize-100" viewBox="0 0 20 20">
<path d="M4.1 14.1l-3.1 2.9 2 2 2.9-3.1 2.1 2.1v-6h-6l2.1 2.1zM19 3l-2-2-2.9 3.1-2.1-2.1v6h6l-2.1-2.1 3.1-2.9z"></path>
</symbol>
<symbol id="icon-resize-full-screen" viewBox="0 0 20 20">
<path d="M6.987 10.987l-2.931 3.031-2.056-2.429v6.411h6.387l-2.43-2.081 3.030-2.932-2-2zM11.613 2l2.43 2.081-3.030 2.932 2 2 2.931-3.031 2.056 2.429v-6.411h-6.387z"></path>
</symbol>
<symbol id="icon-trash" viewBox="0 0 20 20">
<path d="M3.389 7.113l1.101 10.908c0.061 0.461 2.287 1.977 5.51 1.979 3.225-0.002 5.451-1.518 5.511-1.979l1.102-10.908c-1.684 0.942-4.201 1.387-6.613 1.387-2.41 0-4.928-0.445-6.611-1.387zM13.168 1.51l-0.859-0.951c-0.332-0.473-0.692-0.559-1.393-0.559h-1.831c-0.7 0-1.061 0.086-1.392 0.559l-0.859 0.951c-2.57 0.449-4.434 1.64-4.434 2.519v0.17c0 1.547 3.403 2.801 7.6 2.801 4.198 0 7.601-1.254 7.601-2.801v-0.17c0-0.879-1.863-2.070-4.433-2.519zM12.070 4.34l-1.070-1.34h-2l-1.068 1.34h-1.7c0 0 1.862-2.221 2.111-2.522 0.19-0.23 0.384-0.318 0.636-0.318h2.043c0.253 0 0.447 0.088 0.637 0.318 0.248 0.301 2.111 2.522 2.111 2.522h-1.7z"></path>
</symbol>
<symbol id="icon-triangle-down" viewBox="0 0 20 20">
<path d="M5 6h10l-5 9-5-9z"></path>
</symbol>
<symbol id="icon-triangle-left" viewBox="0 0 20 20">
<path d="M14 5v10l-9-5 9-5z"></path>
</symbol>
<symbol id="icon-triangle-right" viewBox="0 0 20 20">
<path d="M15 10l-9 5v-10l9 5z"></path>
</symbol>
<symbol id="icon-triangle-up" viewBox="0 0 20 20">
<path d="M15 14h-10l5-9 5 9z"></path>
</symbol>
<symbol id="icon-align-left" viewBox="0 0 20 20">
<path d="M6 10l3 3v-2h8v-2h-8v-2l-3 3zM4 2c-0.553 0-1 0.047-1 0.6v14.8c0 0.551 0.447 0.6 1 0.6 0.552 0 1-0.049 1-0.6v-14.8c0-0.553-0.448-0.6-1-0.6z"></path>
</symbol>
<symbol id="icon-align-right" viewBox="0 0 20 20">
<path d="M11 7v2h-8v2h8v2l3-3-3-3zM15 2.6v14.8c0 0.551 0.448 0.6 1 0.6 0.553 0 1-0.049 1-0.6v-14.8c0-0.553-0.447-0.6-1-0.6-0.552 0-1 0.047-1 0.6z"></path>
</symbol>
<symbol id="icon-calculator" viewBox="0 0 20 20">
<path d="M14.6 1h-9.202c-0.769 0-1.398 0.629-1.398 1.4v15.2c0 0.77 0.629 1.4 1.398 1.4h9.202c0.769 0 1.4-0.631 1.4-1.4v-15.2c0-0.771-0.631-1.4-1.4-1.4zM7 12c0.689 0 1.25 0.447 1.25 1s-0.561 1-1.25 1c-0.69 0-1.25-0.447-1.25-1s0.56-1 1.25-1zM5.75 10c0-0.553 0.56-1 1.25-1s1.25 0.447 1.25 1-0.561 1-1.25 1c-0.69 0-1.25-0.447-1.25-1zM7 15c0.689 0 1.25 0.447 1.25 1s-0.561 1-1.25 1c-0.69 0-1.25-0.447-1.25-1s0.56-1 1.25-1zM10 12c0.689 0 1.25 0.447 1.25 1s-0.561 1-1.25 1c-0.69 0-1.25-0.447-1.25-1s0.56-1 1.25-1zM8.75 10c0-0.553 0.56-1 1.25-1s1.25 0.447 1.25 1-0.561 1-1.25 1c-0.69 0-1.25-0.447-1.25-1zM10 15c0.689 0 1.25 0.447 1.25 1s-0.561 1-1.25 1c-0.69 0-1.25-0.447-1.25-1s0.56-1 1.25-1zM13 12c0.689 0 1.25 0.447 1.25 1s-0.561 1-1.25 1c-0.69 0-1.25-0.447-1.25-1s0.56-1 1.25-1zM11.75 10c0-0.553 0.56-1 1.25-1s1.25 0.447 1.25 1-0.561 1-1.25 1c-0.69 0-1.25-0.447-1.25-1zM13 15c0.689 0 1.25 0.447 1.25 1s-0.561 1-1.25 1c-0.69 0-1.25-0.447-1.25-1s0.56-1 1.25-1zM5 7v-3h10v3h-10z"></path>
</symbol>
<symbol id="icon-calendar" viewBox="0 0 20 20">
<path d="M17 3h-1v2h-3v-2h-6v2h-3v-2h-1c-1.101 0-2 0.9-2 2v12c0 1.1 0.899 2 2 2h14c1.1 0 2-0.9 2-2v-12c0-1.1-0.9-2-2-2zM17 17h-14v-8h14v8zM6.5 1h-2v3.5h2v-3.5zM15.5 1h-2v3.5h2v-3.5z"></path>
</symbol>
<symbol id="icon-ccw" viewBox="0 0 20 20">
<path d="M0.685 10h2.372v-0.205c0.108-4.434 3.724-7.996 8.169-7.996 4.515 0 8.174 3.672 8.174 8.201s-3.659 8.199-8.174 8.199c-1.898 0-3.645-0.65-5.033-1.738l1.406-1.504c1.016 0.748 2.27 1.193 3.627 1.193 3.386 0 6.131-2.754 6.131-6.15s-2.745-6.15-6.131-6.15c-3.317 0-6.018 2.643-6.125 5.945v0.205h2.672l-3.494 3.894-3.594-3.894z"></path>
</symbol>
<symbol id="icon-check" viewBox="0 0 20 20">
<path d="M8.294 16.998c-0.435 0-0.847-0.203-1.111-0.553l-3.573-4.721c-0.465-0.613-0.344-1.486 0.27-1.951 0.615-0.467 1.488-0.344 1.953 0.27l2.351 3.104 5.911-9.492c0.407-0.652 1.267-0.852 1.921-0.445s0.854 1.266 0.446 1.92l-6.984 11.21c-0.242 0.391-0.661 0.635-1.12 0.656-0.022 0.002-0.042 0.002-0.064 0.002z"></path>
</symbol>
<symbol id="icon-circle-with-cross" viewBox="0 0 20 20">
<path d="M10 1.6c-4.639 0-8.4 3.761-8.4 8.4s3.761 8.4 8.4 8.4 8.4-3.761 8.4-8.4c0-4.639-3.761-8.4-8.4-8.4zM14.789 13.061l-1.729 1.729-3.060-3.061-3.061 3.060-1.729-1.729 3.062-3.060-3.061-3.061 1.729-1.728 3.060 3.060 3.061-3.061 1.729 1.729-3.062 3.061 3.061 3.061z"></path>
</symbol>
<symbol id="icon-circle-with-plus" viewBox="0 0 20 20">
<path d="M10 1.6c-4.639 0-8.4 3.761-8.4 8.4s3.761 8.4 8.4 8.4 8.4-3.761 8.4-8.4c0-4.639-3.761-8.4-8.4-8.4zM15 11h-4v4h-2v-4h-4v-2h4v-4h2v4h4v2z"></path>
</symbol>
<symbol id="icon-cog" viewBox="0 0 20 20">
<path d="M16.783 10c0-1.049 0.646-1.875 1.617-2.443-0.176-0.584-0.407-1.145-0.692-1.672-1.089 0.285-1.97-0.141-2.711-0.883-0.741-0.74-0.968-1.621-0.683-2.711-0.527-0.285-1.088-0.518-1.672-0.691-0.568 0.97-1.595 1.615-2.642 1.615-1.048 0-2.074-0.645-2.643-1.615-0.585 0.173-1.144 0.406-1.671 0.691 0.285 1.090 0.059 1.971-0.684 2.711-0.74 0.742-1.621 1.168-2.711 0.883-0.285 0.527-0.517 1.088-0.691 1.672 0.97 0.568 1.615 1.394 1.615 2.443 0 1.047-0.645 2.074-1.615 2.643 0.175 0.584 0.406 1.144 0.691 1.672 1.090-0.285 1.971-0.059 2.711 0.682s0.969 1.623 0.684 2.711c0.527 0.285 1.087 0.518 1.672 0.693 0.568-0.973 1.595-1.617 2.643-1.617 1.047 0 2.074 0.645 2.643 1.617 0.584-0.176 1.144-0.408 1.672-0.693-0.285-1.088-0.059-1.969 0.683-2.711 0.741-0.74 1.622-1.166 2.711-0.883 0.285-0.527 0.517-1.086 0.692-1.672-0.973-0.569-1.619-1.395-1.619-2.442zM10 13.652c-2.018 0-3.653-1.635-3.653-3.652 0-2.018 1.636-3.654 3.653-3.654s3.652 1.637 3.652 3.654c0 2.018-1.634 3.652-3.652 3.652z"></path>
</symbol>
<symbol id="icon-copy" viewBox="0 0 20 20">
<path d="M11 0h-8c-0.553 0-1 0.447-1 1v12c0 0.552 0.447 1 1 1h5v2h2v-2h-1.999v-2h1.999v-2h-2v2h-4v-10h6v4h2v-5c0-0.552-0.447-1-1-1zM8 7v1h2v-2h-1c-0.553 0-1 0.447-1 1zM12 20h2v-2h-2v2zM12 8h2v-2h-2v2zM8 19c0 0.552 0.447 1 1 1h1v-2h-2v1zM17 6h-1v2h2v-1c0-0.552-0.447-1-1-1zM16 20h1c0.553 0 1-0.448 1-1v-1h-2v2zM16 12h2v-2h-2v2zM16 16h2v-2h-2v2z"></path>
</symbol>
<symbol id="icon-credit-card" viewBox="0 0 20 20">
<path d="M18 3h-16c-1.101 0-2 0.9-2 2v10c0 1.1 0.899 2 2 2h16c1.1 0 2-0.9 2-2v-10c0-1.1-0.9-2-2-2zM18 15h-16v-6h16v6zM18 6h-16v-1h16v1zM4 11.1v0.6h0.6v-0.6h-0.6zM7.6 12.299v0.601h1.2v-0.601h0.6v-0.6h0.6v-0.6h-1.2v0.6h-0.601v0.6h-0.599zM10 12.9v-0.601h-0.601v0.601h0.601zM7 12.9v-0.601h-1.2v0.601h1.2zM7.6 11.699h0.6v-0.6h-1.2v1.199h0.6v-0.599zM5.199 12.299h0.601v-0.6h0.6v-0.6h-1.2v0.6h-0.6v0.6h-0.6v0.601h1.199v-0.601z"></path>
</symbol>
<symbol id="icon-credit" viewBox="0 0 20 20">
<path d="M11 16.755v2.245h-2v-2.143c-1.712-0.1-3.066-0.589-4.241-1.797l1.718-1.74c0.859 0.87 2.023 1.16 3.282 1.16 1.565 0 2.405-0.599 2.405-1.702 0-0.483-0.133-0.889-0.42-1.16-0.267-0.251-0.572-0.387-1.202-0.483l-1.642-0.232c-1.164-0.174-2.022-0.541-2.634-1.141-0.648-0.657-0.973-1.546-0.973-2.707 0-2.155 1.382-3.743 3.707-4.1v-1.955h2v1.932c1.382 0.145 2.465 0.62 3.415 1.551l-1.679 1.682c-0.859-0.832-1.889-0.947-2.787-0.947-1.412 0-2.099 0.792-2.099 1.74 0 0.348 0.115 0.716 0.401 0.986 0.267 0.252 0.706 0.464 1.26 0.541l1.602 0.232c1.241 0.174 2.023 0.522 2.596 1.063 0.726 0.696 1.050 1.702 1.050 2.92 0 2.25-1.567 3.662-3.759 4.055z"></path>
</symbol>
<symbol id="icon-cross" viewBox="0 0 20 20">
<path d="M14.348 14.849c-0.469 0.469-1.229 0.469-1.697 0l-2.651-3.030-2.651 3.029c-0.469 0.469-1.229 0.469-1.697 0-0.469-0.469-0.469-1.229 0-1.697l2.758-3.15-2.759-3.152c-0.469-0.469-0.469-1.228 0-1.697s1.228-0.469 1.697 0l2.652 3.031 2.651-3.031c0.469-0.469 1.228-0.469 1.697 0s0.469 1.229 0 1.697l-2.758 3.152 2.758 3.15c0.469 0.469 0.469 1.229 0 1.698z"></path>
</symbol>
<symbol id="icon-cw" viewBox="0 0 20 20">
<path d="M19.315 10h-2.372v-0.205c-0.108-4.434-3.724-7.996-8.169-7.996-4.515 0-8.174 3.672-8.174 8.201s3.659 8.199 8.174 8.199c1.898 0 3.645-0.65 5.033-1.738l-1.406-1.504c-1.016 0.748-2.27 1.193-3.627 1.193-3.386 0-6.131-2.754-6.131-6.15s2.745-6.15 6.131-6.15c3.317 0 6.018 2.643 6.125 5.945v0.205h-2.672l3.494 3.894 3.594-3.894z"></path>
</symbol>
<symbol id="icon-edit" viewBox="0 0 20 20">
<path d="M17.561 2.439c-1.442-1.443-2.525-1.227-2.525-1.227l-12.826 12.825-1.010 4.762 4.763-1.010 12.826-12.823c-0.001 0 0.216-1.083-1.228-2.527zM5.68 17.217l-1.624 0.35c-0.156-0.293-0.345-0.586-0.69-0.932s-0.639-0.533-0.932-0.691l0.35-1.623 0.47-0.469c0 0 0.883 0.018 1.881 1.016 0.997 0.996 1.016 1.881 1.016 1.881l-0.471 0.468z"></path>
</symbol>
<symbol id="icon-export" viewBox="0 0 20 20">
<path d="M15 15h-13v-9h2.595c0 0 0.689-0.896 2.17-2h-5.765c-0.553 0-1 0.449-1 1v11c0 0.553 0.447 1 1 1h15c0.553 0 1-0.447 1-1v-3.746l-2 1.645v1.101zM13.361 8.050v3.551l6.639-5.201-6.639-4.999v3.131c-8.061 0-8.061 7.968-8.061 7.968 2.282-3.748 3.686-4.45 8.061-4.45z"></path>
</symbol>
<symbol id="icon-folder" viewBox="0 0 20 20">
<path d="M18.405 4.799c-0.111-0.44-0.655-0.799-1.21-0.799h-6.814c-0.554 0-1.33-0.318-1.722-0.707l-0.596-0.588c-0.392-0.389-1.167-0.705-1.721-0.705h-3.255c-0.555 0-1.059 0.447-1.12 0.994l-0.292 3.006h16.931l-0.201-1.201zM19.412 7h-18.824c-0.342 0-0.61 0.294-0.577 0.635l0.923 9.669c0.037 0.394 0.369 0.696 0.766 0.696h16.6c0.397 0 0.728-0.302 0.766-0.696l0.923-9.669c0.033-0.341-0.235-0.635-0.577-0.635z"></path>
</symbol>
<symbol id="icon-home" viewBox="0 0 20 20">
<path d="M18.672 11h-1.672v6c0 0.445-0.194 1-1 1h-4v-6h-4v6h-4c-0.806 0-1-0.555-1-1v-6h-1.672c-0.598 0-0.47-0.324-0.060-0.748l8.024-8.032c0.195-0.202 0.451-0.302 0.708-0.312 0.257 0.010 0.513 0.109 0.708 0.312l8.023 8.031c0.411 0.425 0.539 0.749-0.059 0.749z"></path>
</symbol>
<symbol id="icon-info-with-circle" viewBox="0 0 20 20">
<path d="M10 0.4c-5.303 0-9.601 4.298-9.601 9.6 0 5.303 4.298 9.601 9.601 9.601 5.301 0 9.6-4.298 9.6-9.601s-4.299-9.6-9.6-9.6zM10.896 3.866c0.936 0 1.211 0.543 1.211 1.164 0 0.775-0.62 1.492-1.679 1.492-0.886 0-1.308-0.445-1.282-1.182 0-0.621 0.519-1.474 1.75-1.474zM8.498 15.75c-0.64 0-1.107-0.389-0.66-2.094l0.733-3.025c0.127-0.484 0.148-0.678 0-0.678-0.191 0-1.022 0.334-1.512 0.664l-0.319-0.523c1.555-1.299 3.343-2.061 4.108-2.061 0.64 0 0.746 0.756 0.427 1.92l-0.84 3.18c-0.149 0.562-0.085 0.756 0.064 0.756 0.192 0 0.82-0.232 1.438-0.719l0.362 0.486c-1.513 1.512-3.162 2.094-3.801 2.094z"></path>
</symbol>
<symbol id="icon-key" viewBox="0 0 20 20">
<path d="M17.691 4.725c-0.503-2.977-3.22-4.967-6.069-4.441s-5.256 2.816-4.753 5.795c0.107 0.641 0.408 1.644 0.763 2.365l-5.175 7.723c-0.191 0.285-0.299 0.799-0.242 1.141l0.333 1.971c0.058 0.342 0.372 0.572 0.7 0.514l1.516-0.281c0.328-0.059 0.744-0.348 0.924-0.639l2.047-3.311 0.018-0.022 1.386-0.256 2.39-3.879c0.785 0.139 1.912 0.092 2.578-0.031 2.848-0.526 4.087-3.67 3.584-6.649zM15.166 6.252c-0.784 1.17-1.584 0.346-2.703-0.475-1.119-0.818-2.135-1.322-1.352-2.492s2.326-1.455 3.447-0.635c1.12 0.819 1.391 2.432 0.608 3.602z"></path>
</symbol>
<symbol id="icon-link" viewBox="0 0 20 20">
<path d="M7.859 14.691l-0.81 0.805c-0.701 0.695-1.843 0.695-2.545 0-0.336-0.334-0.521-0.779-0.521-1.252s0.186-0.916 0.521-1.252l2.98-2.955c0.617-0.613 1.779-1.515 2.626-0.675 0.389 0.386 1.016 0.384 1.403-0.005 0.385-0.389 0.383-1.017-0.006-1.402-1.438-1.428-3.566-1.164-5.419 0.675l-2.98 2.956c-0.715 0.709-1.108 1.654-1.108 2.658 0 1.006 0.394 1.949 1.108 2.658 0.736 0.73 1.702 1.096 2.669 1.096s1.934-0.365 2.669-1.096l0.811-0.805c0.389-0.385 0.391-1.012 0.005-1.4s-1.014-0.39-1.403-0.006zM16.891 3.207c-1.547-1.534-3.709-1.617-5.139-0.197l-1.009 1.002c-0.389 0.386-0.392 1.013-0.006 1.401 0.386 0.389 1.013 0.391 1.402 0.005l1.010-1.001c0.74-0.736 1.711-0.431 2.346 0.197 0.336 0.335 0.522 0.779 0.522 1.252s-0.186 0.917-0.522 1.251l-3.18 3.154c-1.454 1.441-2.136 0.766-2.427 0.477-0.389-0.386-1.016-0.383-1.401 0.005s-0.384 1.017 0.005 1.401c0.668 0.662 1.43 0.99 2.228 0.99 0.977 0 2.010-0.492 2.993-1.467l3.18-3.153c0.712-0.71 1.107-1.654 1.107-2.658s-0.395-1.949-1.109-2.659z"></path>
</symbol>
<symbol id="icon-lock" viewBox="0 0 20 20">
<path d="M15.8 8h-1.8v-2.4c0-2.897-1.335-4.6-4-4.6s-4 1.703-4 4.6v2.4h-2c-0.553 0-1 0.646-1 1.199v7.801c0 0.549 0.428 1.139 0.951 1.307l1.197 0.387c0.524 0.167 1.402 0.306 1.952 0.306h5.8c0.549 0 1.428-0.139 1.951-0.307l1.196-0.387c0.524-0.167 0.953-0.757 0.953-1.306v-7.801c0-0.553-0.648-1.199-1.2-1.199zM12 8h-4v-2.801c0-1.445 0.797-2.199 2-2.199s2 0.754 2 2.199v2.801z"></path>
</symbol>
<symbol id="icon-log-out" viewBox="0 0 20 20">
<path d="M19 10l-6-5v3h-7v4h7v3l6-5zM3 3h8v-2h-8c-1.1 0-2 0.9-2 2v14c0 1.1 0.9 2 2 2h8v-2h-8v-14z"></path>
</symbol>
<symbol id="icon-magnifying-glass" viewBox="0 0 20 20">
<path d="M17.545 15.467l-3.779-3.779c0.57-0.935 0.898-2.035 0.898-3.21 0-3.417-2.961-6.377-6.378-6.377s-6.186 2.769-6.186 6.186c0 3.416 2.961 6.377 6.377 6.377 1.137 0 2.2-0.309 3.115-0.844l3.799 3.801c0.372 0.371 0.975 0.371 1.346 0l0.943-0.943c0.371-0.371 0.236-0.84-0.135-1.211zM4.004 8.287c0-2.366 1.917-4.283 4.282-4.283s4.474 2.107 4.474 4.474c0 2.365-1.918 4.283-4.283 4.283s-4.473-2.109-4.473-4.474z"></path>
</symbol>
<symbol id="icon-mail" viewBox="0 0 20 20">
<path d="M1.574 5.286c0.488 0.262 7.248 3.894 7.5 4.029s0.578 0.199 0.906 0.199c0.328 0 0.654-0.064 0.906-0.199s7.012-3.767 7.5-4.029c0.489-0.263 0.951-1.286 0.054-1.286h-16.919c-0.897 0-0.435 1.023 0.053 1.286zM18.613 7.489c-0.555 0.289-7.387 3.849-7.727 4.027s-0.578 0.199-0.906 0.199-0.566-0.021-0.906-0.199-7.133-3.739-7.688-4.028c-0.39-0.204-0.386 0.035-0.386 0.219s0 7.293 0 7.293c0 0.42 0.566 1 1 1h16c0.434 0 1-0.58 1-1 0 0 0-7.108 0-7.292s0.004-0.423-0.387-0.219z"></path>
</symbol>
<symbol id="icon-menu" viewBox="0 0 20 20">
<path d="M16.4 9h-12.8c-0.552 0-0.6 0.447-0.6 1s0.048 1 0.6 1h12.8c0.552 0 0.6-0.447 0.6-1s-0.048-1-0.6-1zM16.4 13h-12.8c-0.552 0-0.6 0.447-0.6 1s0.048 1 0.6 1h12.8c0.552 0 0.6-0.447 0.6-1s-0.048-1-0.6-1zM3.6 7h12.8c0.552 0 0.6-0.447 0.6-1s-0.048-1-0.6-1h-12.8c-0.552 0-0.6 0.447-0.6 1s0.048 1 0.6 1z"></path>
</symbol>
<symbol id="icon-new" viewBox="0 0 20 20">
<path d="M18.69 12.344l-1.727-1.538c-0.5-0.445-0.5-1.174 0-1.619l1.727-1.539c0.5-0.445 0.367-0.859-0.296-0.924l-2.29-0.217c-0.662-0.062-1.020-0.633-0.791-1.266l1.215-3.383c0.228-0.635-0.051-0.865-0.619-0.514l-2.701 1.67c-0.568 0.354-1.303 0.16-1.631-0.426l-0.978-1.746c-0.329-0.588-0.872-0.59-1.207-0.008l-0.909 1.58c-0.337 0.585-1.108 0.833-1.713 0.556l-1.6-0.734c-0.608-0.28-1.073 0.042-1.037 0.716l0.086 1.615c0.037 0.674-0.461 1.367-1.104 1.541l-1.545 0.414c-0.642 0.174-0.76 0.68-0.26 1.125l1.727 1.539c0.5 0.445 0.5 1.174 0 1.619l-1.727 1.539c-0.5 0.445-0.368 0.877 0.293 0.957l2.095 0.254c0.661 0.080 1.029 0.67 0.818 1.311l-1.074 3.258c-0.211 0.641 0.090 0.889 0.668 0.555l2.463-1.426c0.578-0.334 1.356-0.15 1.729 0.408l1.022 1.539c0.372 0.559 0.931 0.529 1.24-0.068l0.899-1.733c0.31-0.598 1.052-0.842 1.648-0.543l1.734 0.867c0.598 0.297 1.057-0.010 1.021-0.682l-0.087-1.617c-0.035-0.674 0.461-1.365 1.106-1.539l1.543-0.416c0.644-0.174 0.762-0.68 0.262-1.125zM11 14h-2v-2h2v2zM11 11h-2v-5h2v5z"></path>
</symbol>
<symbol id="icon-plus" viewBox="0 0 20 20">
<path d="M16 10c0 0.553-0.048 1-0.601 1h-4.399v4.399c0 0.552-0.447 0.601-1 0.601s-1-0.049-1-0.601v-4.399h-4.399c-0.552 0-0.601-0.447-0.601-1s0.049-1 0.601-1h4.399v-4.399c0-0.553 0.447-0.601 1-0.601s1 0.048 1 0.601v4.399h4.399c0.553 0 0.601 0.447 0.601 1z"></path>
</symbol>
<symbol id="icon-reply-all" viewBox="0 0 20 20">
<path d="M7.225 5.767v-2.681l-7.225 6.456 7.225 6.691v-2.777l-4.225-3.914 4.225-3.775zM12.225 6.953v-3.867l-7.225 6.456 7.225 6.691v-4.357c3.292 0 5.291 0.422 7.775 4.81 0-0.001-0.368-9.733-7.775-9.733z"></path>
</symbol>
<symbol id="icon-reply" viewBox="0 0 20 20">
<path d="M19 16.685c0 0-2.225-9.732-11-9.732v-3.984l-7 6.573 7 6.69v-4.357c4.763-0.001 8.516 0.421 11 4.81z"></path>
</symbol>
<symbol id="icon-share-alternitive" viewBox="0 0 20 20">
<path d="M9 13h2v-9h2l-3-4-3 4h2v9zM17 7h-3v2h2v9h-12v-9h2v-2h-3c-0.553 0-1 0.447-1 1v11c0 0.552 0.447 1 1 1h14c0.553 0 1-0.448 1-1v-11c0-0.552-0.447-1-1-1z"></path>
</symbol>
<symbol id="icon-star" viewBox="0 0 20 20">
<path d="M10 1.3l2.388 6.722h6.412l-5.232 3.948 1.871 6.928-5.439-4.154-5.438 4.154 1.87-6.928-5.233-3.948h6.412l2.389-6.722z"></path>
</symbol>
<symbol id="icon-wallet" viewBox="0 0 20 20">
<path d="M16 6h-12.5v-0.5l11-0.88v0.88h1.5v-1.5c0-1.1-0.891-1.872-1.979-1.717l-10.041 1.434c-1.089 0.156-1.98 1.183-1.98 2.283v10c0 1.104 0.895 2 2 2h12c1.104 0 2-0.896 2-2v-8c0-1.104-0.896-2-2-2zM14.5 13.006c-0.828 0-1.5-0.672-1.5-1.5s0.672-1.5 1.5-1.5 1.5 0.672 1.5 1.5-0.672 1.5-1.5 1.5z"></path>
</symbol>
</defs>
</svg>
